<svg id="visual" viewBox="0 0 2560 1440" width="2560" height="1440" xmlns="http://www.w3.org/2000/svg" xmlns:xlink="http://www.w3.org/1999/xlink" version="1.1"><g stroke-width="1" stroke-linejoin="bevel"><path d="M1316 786L1362 801L1363 731Z" fill="#41535e" stroke="#41535e"></path><path d="M1210 611L1210 820L1316 786Z" fill="#6e7f8b" stroke="#6e7f8b"></path><path d="M1316 786L1280 1029L1362 801Z" fill="#21343e" stroke="#21343e"></path><path d="M1280 1029L1445 897L1362 801Z" fill="#576874" stroke="#576874"></path><path d="M1362 801L1547 740L1363 731Z" fill="#0d212a" stroke="#0d212a"></path><path d="M1551 751L1547 740L1362 801Z" fill="#364853" stroke="#364853"></path><path d="M1445 897L1551 751L1362 801Z" fill="#364853" stroke="#364853"></path><path d="M1547 740L1471 600L1363 731Z" fill="#7a8a97" stroke="#7a8a97"></path><path d="M1363 731L1210 611L1316 786Z" fill="#0d212a" stroke="#0d212a"></path><path d="M1352 542L1210 611L1363 731Z" fill="#172a34" stroke="#172a34"></path><path d="M1471 600L1352 542L1363 731Z" fill="#6e7f8b" stroke="#6e7f8b"></path><path d="M1280 1029L1475 957L1445 897Z" fill="#364853" stroke="#364853"></path><path d="M1445 897L1602 951L1551 751Z" fill="#172a34" stroke="#172a34"></path><path d="M1547 740L1495 567L1471 600Z" fill="#21343e" stroke="#21343e"></path><path d="M1471 600L1495 567L1352 542Z" fill="#7a8a97" stroke="#7a8a97"></path><path d="M1703 592L1495 567L1547 740Z" fill="#637380" stroke="#637380"></path><path d="M1194 462L1109 642L1210 611Z" fill="#576874" stroke="#576874"></path><path d="M1210 611L1109 642L1210 820Z" fill="#364853" stroke="#364853"></path><path d="M1097 990L1280 1029L1210 820Z" fill="#7a8a97" stroke="#7a8a97"></path><path d="M1210 820L1280 1029L1316 786Z" fill="#637380" stroke="#637380"></path><path d="M1495 567L1343 480L1352 542Z" fill="#7a8a97" stroke="#7a8a97"></path><path d="M1352 542L1211 461L1210 611Z" fill="#2c3e48" stroke="#2c3e48"></path><path d="M956 534L1062 656L1109 642Z" fill="#172a34" stroke="#172a34"></path><path d="M1109 642L1062 656L1210 820Z" fill="#576874" stroke="#576874"></path><path d="M1605 980L1602 951L1475 957Z" fill="#637380" stroke="#637380"></path><path d="M1475 957L1602 951L1445 897Z" fill="#2c3e48" stroke="#2c3e48"></path><path d="M1602 951L1676 779L1551 751Z" fill="#576874" stroke="#576874"></path><path d="M1551 751L1676 779L1547 740Z" fill="#4c5e69" stroke="#4c5e69"></path><path d="M1343 480L1211 461L1352 542Z" fill="#2c3e48" stroke="#2c3e48"></path><path d="M1572 1120L1605 980L1475 957Z" fill="#364853" stroke="#364853"></path><path d="M1745 900L1731 752L1676 779Z" fill="#0d212a" stroke="#0d212a"></path><path d="M949 871L1097 990L1210 820Z" fill="#172a34" stroke="#172a34"></path><path d="M1211 461L1194 462L1210 611Z" fill="#7a8a97" stroke="#7a8a97"></path><path d="M1357 1232L1450 1118L1280 1029Z" fill="#172a34" stroke="#172a34"></path><path d="M1280 1029L1450 1118L1475 957Z" fill="#4c5e69" stroke="#4c5e69"></path><path d="M1731 752L1711 701L1676 779Z" fill="#637380" stroke="#637380"></path><path d="M1676 779L1711 701L1547 740Z" fill="#576874" stroke="#576874"></path><path d="M1712 526L1535 436L1495 567Z" fill="#0d212a" stroke="#0d212a"></path><path d="M1495 567L1535 436L1343 480Z" fill="#172a34" stroke="#172a34"></path><path d="M1343 480L1281 371L1211 461Z" fill="#21343e" stroke="#21343e"></path><path d="M1211 461L1281 371L1194 462Z" fill="#7a8a97" stroke="#7a8a97"></path><path d="M1745 900L1676 779L1602 951Z" fill="#6e7f8b" stroke="#6e7f8b"></path><path d="M1712 526L1536 431L1535 436Z" fill="#41535e" stroke="#41535e"></path><path d="M1535 436L1536 431L1343 480Z" fill="#4c5e69" stroke="#4c5e69"></path><path d="M874 684L958 787L1062 656Z" fill="#6e7f8b" stroke="#6e7f8b"></path><path d="M1062 656L958 787L1210 820Z" fill="#4c5e69" stroke="#4c5e69"></path><path d="M1840 602L1703 592L1711 701Z" fill="#41535e" stroke="#41535e"></path><path d="M1711 701L1703 592L1547 740Z" fill="#364853" stroke="#364853"></path><path d="M1189 1134L1199 1136L1280 1029Z" fill="#172a34" stroke="#172a34"></path><path d="M1341 300L1281 371L1343 480Z" fill="#2c3e48" stroke="#2c3e48"></path><path d="M1169 1157L1189 1134L1084 1112Z" fill="#0d212a" stroke="#0d212a"></path><path d="M1097 990L1189 1134L1280 1029Z" fill="#7a8a97" stroke="#7a8a97"></path><path d="M1572 1120L1652 1039L1605 980Z" fill="#41535e" stroke="#41535e"></path><path d="M1605 980L1745 900L1602 951Z" fill="#364853" stroke="#364853"></path><path d="M958 787L949 871L1210 820Z" fill="#6e7f8b" stroke="#6e7f8b"></path><path d="M1652 1039L1745 900L1605 980Z" fill="#21343e" stroke="#21343e"></path><path d="M1587 1132L1572 1120L1425 1227Z" fill="#41535e" stroke="#41535e"></path><path d="M1450 1118L1572 1120L1475 957Z" fill="#172a34" stroke="#172a34"></path><path d="M949 871L949 901L1097 990Z" fill="#21343e" stroke="#21343e"></path><path d="M1084 1112L1189 1134L1097 990Z" fill="#576874" stroke="#576874"></path><path d="M1189 1134L1169 1157L1199 1136Z" fill="#7a8a97" stroke="#7a8a97"></path><path d="M1199 1136L1357 1232L1280 1029Z" fill="#21343e" stroke="#21343e"></path><path d="M896 1039L1084 1112L1097 990Z" fill="#2c3e48" stroke="#2c3e48"></path><path d="M1840 602L1712 526L1703 592Z" fill="#7a8a97" stroke="#7a8a97"></path><path d="M1703 592L1712 526L1495 567Z" fill="#172a34" stroke="#172a34"></path><path d="M1840 602L1711 701L1731 752Z" fill="#7a8a97" stroke="#7a8a97"></path><path d="M1425 1227L1572 1120L1450 1118Z" fill="#21343e" stroke="#21343e"></path><path d="M1572 1120L1587 1132L1652 1039Z" fill="#0d212a" stroke="#0d212a"></path><path d="M1115 323L1062 412L1194 462Z" fill="#21343e" stroke="#21343e"></path><path d="M1194 462L1062 412L1109 642Z" fill="#364853" stroke="#364853"></path><path d="M1062 412L956 534L1109 642Z" fill="#637380" stroke="#637380"></path><path d="M958 787L847 814L949 871Z" fill="#4c5e69" stroke="#4c5e69"></path><path d="M1062 412L953 519L956 534Z" fill="#41535e" stroke="#41535e"></path><path d="M956 534L874 684L1062 656Z" fill="#7a8a97" stroke="#7a8a97"></path><path d="M1441 194L1341 300L1536 431Z" fill="#41535e" stroke="#41535e"></path><path d="M1536 431L1341 300L1343 480Z" fill="#172a34" stroke="#172a34"></path><path d="M1281 371L1115 323L1194 462Z" fill="#0d212a" stroke="#0d212a"></path><path d="M1169 1157L1357 1232L1199 1136Z" fill="#6e7f8b" stroke="#6e7f8b"></path><path d="M1391 1236L1425 1227L1450 1118Z" fill="#4c5e69" stroke="#4c5e69"></path><path d="M1357 1232L1391 1236L1450 1118Z" fill="#637380" stroke="#637380"></path><path d="M790 637L874 684L956 534Z" fill="#2c3e48" stroke="#2c3e48"></path><path d="M949 871L847 814L949 901Z" fill="#4c5e69" stroke="#4c5e69"></path><path d="M1094 275L990 427L1062 412Z" fill="#172a34" stroke="#172a34"></path><path d="M1062 412L990 427L953 519Z" fill="#4c5e69" stroke="#4c5e69"></path><path d="M803 507L790 637L956 534Z" fill="#576874" stroke="#576874"></path><path d="M1159 239L1115 323L1281 371Z" fill="#6e7f8b" stroke="#6e7f8b"></path><path d="M874 684L847 814L958 787Z" fill="#364853" stroke="#364853"></path><path d="M949 901L896 1039L1097 990Z" fill="#0d212a" stroke="#0d212a"></path><path d="M1652 1039L1807 989L1745 900Z" fill="#7a8a97" stroke="#7a8a97"></path><path d="M1943 639L1840 602L1731 752Z" fill="#0d212a" stroke="#0d212a"></path><path d="M1830 1141L1807 989L1652 1039Z" fill="#2c3e48" stroke="#2c3e48"></path><path d="M1712 526L1612 325L1536 431Z" fill="#172a34" stroke="#172a34"></path><path d="M1870 930L1731 752L1745 900Z" fill="#364853" stroke="#364853"></path><path d="M1712 526L1788 409L1612 325Z" fill="#172a34" stroke="#172a34"></path><path d="M1788 409L1610 311L1612 325Z" fill="#6e7f8b" stroke="#6e7f8b"></path><path d="M1612 325L1610 311L1536 431Z" fill="#637380" stroke="#637380"></path><path d="M802 948L879 1008L949 901Z" fill="#41535e" stroke="#41535e"></path><path d="M1084 1112L1033 1255L1169 1157Z" fill="#0d212a" stroke="#0d212a"></path><path d="M879 1008L896 1039L949 901Z" fill="#41535e" stroke="#41535e"></path><path d="M1807 989L1870 930L1745 900Z" fill="#41535e" stroke="#41535e"></path><path d="M1159 239L1094 275L1115 323Z" fill="#0d212a" stroke="#0d212a"></path><path d="M1115 323L1094 275L1062 412Z" fill="#576874" stroke="#576874"></path><path d="M1159 239L1281 371L1341 300Z" fill="#637380" stroke="#637380"></path><path d="M1342 143L1159 239L1341 300Z" fill="#576874" stroke="#576874"></path><path d="M1840 602L1788 409L1712 526Z" fill="#0d212a" stroke="#0d212a"></path><path d="M1094 275L924 389L990 427Z" fill="#6e7f8b" stroke="#6e7f8b"></path><path d="M990 427L924 389L953 519Z" fill="#21343e" stroke="#21343e"></path><path d="M874 684L790 637L847 814Z" fill="#172a34" stroke="#172a34"></path><path d="M896 1039L958 1184L1084 1112Z" fill="#172a34" stroke="#172a34"></path><path d="M1181 1351L1316 1347L1357 1232Z" fill="#576874" stroke="#576874"></path><path d="M819 1287L958 1184L896 1039Z" fill="#41535e" stroke="#41535e"></path><path d="M854 465L956 534L953 519Z" fill="#6e7f8b" stroke="#6e7f8b"></path><path d="M847 814L802 948L949 901Z" fill="#2c3e48" stroke="#2c3e48"></path><path d="M583 841L802 948L847 814Z" fill="#0d212a" stroke="#0d212a"></path><path d="M879 1008L766 1033L896 1039Z" fill="#41535e" stroke="#41535e"></path><path d="M924 389L854 465L953 519Z" fill="#4c5e69" stroke="#4c5e69"></path><path d="M1585 206L1441 194L1610 311Z" fill="#21343e" stroke="#21343e"></path><path d="M1610 311L1441 194L1536 431Z" fill="#4c5e69" stroke="#4c5e69"></path><path d="M984 1231L1033 1255L1084 1112Z" fill="#364853" stroke="#364853"></path><path d="M1357 1232L1316 1347L1391 1236Z" fill="#21343e" stroke="#21343e"></path><path d="M1181 1351L1357 1232L1169 1157Z" fill="#41535e" stroke="#41535e"></path><path d="M1391 1236L1370 1440L1425 1227Z" fill="#172a34" stroke="#172a34"></path><path d="M1675 1271L1682 1247L1587 1132Z" fill="#364853" stroke="#364853"></path><path d="M1587 1132L1682 1247L1652 1039Z" fill="#41535e" stroke="#41535e"></path><path d="M1675 1271L1587 1132L1425 1227Z" fill="#364853" stroke="#364853"></path><path d="M1807 989L1980 987L1870 930Z" fill="#41535e" stroke="#41535e"></path><path d="M958 1184L984 1231L1084 1112Z" fill="#6e7f8b" stroke="#6e7f8b"></path><path d="M955 1382L984 1231L819 1287Z" fill="#172a34" stroke="#172a34"></path><path d="M1590 1384L1675 1271L1425 1227Z" fill="#41535e" stroke="#41535e"></path><path d="M1682 1247L1830 1141L1652 1039Z" fill="#7a8a97" stroke="#7a8a97"></path><path d="M811 408L803 507L854 465Z" fill="#6e7f8b" stroke="#6e7f8b"></path><path d="M854 465L803 507L956 534Z" fill="#2c3e48" stroke="#2c3e48"></path><path d="M1441 194L1364 160L1341 300Z" fill="#6e7f8b" stroke="#6e7f8b"></path><path d="M1859 184L1585 206L1610 311Z" fill="#637380" stroke="#637380"></path><path d="M1414 144L1342 143L1364 160Z" fill="#6e7f8b" stroke="#6e7f8b"></path><path d="M1969 658L1943 639L1986 789Z" fill="#172a34" stroke="#172a34"></path><path d="M1840 602L1868 401L1788 409Z" fill="#364853" stroke="#364853"></path><path d="M1138 1440L1181 1351L1033 1255Z" fill="#576874" stroke="#576874"></path><path d="M1033 1255L1181 1351L1169 1157Z" fill="#21343e" stroke="#21343e"></path><path d="M1746 1295L1830 1141L1682 1247Z" fill="#576874" stroke="#576874"></path><path d="M1986 789L1943 639L1731 752Z" fill="#172a34" stroke="#172a34"></path><path d="M1414 144L1364 160L1441 194Z" fill="#0d212a" stroke="#0d212a"></path><path d="M1364 160L1342 143L1341 300Z" fill="#576874" stroke="#576874"></path><path d="M1548 166L1414 144L1441 194Z" fill="#637380" stroke="#637380"></path><path d="M1342 143L1113 182L1159 239Z" fill="#576874" stroke="#576874"></path><path d="M1159 239L1113 182L1094 275Z" fill="#172a34" stroke="#172a34"></path><path d="M924 172L837 246L924 389Z" fill="#364853" stroke="#364853"></path><path d="M924 389L811 408L854 465Z" fill="#2c3e48" stroke="#2c3e48"></path><path d="M1986 789L1731 752L1870 930Z" fill="#637380" stroke="#637380"></path><path d="M1972 414L1868 401L1840 602Z" fill="#364853" stroke="#364853"></path><path d="M1708 67L1548 166L1585 206Z" fill="#0d212a" stroke="#0d212a"></path><path d="M1585 206L1548 166L1441 194Z" fill="#637380" stroke="#637380"></path><path d="M1972 414L1840 602L1943 639Z" fill="#2c3e48" stroke="#2c3e48"></path><path d="M1788 409L1880 264L1610 311Z" fill="#41535e" stroke="#41535e"></path><path d="M2030 822L1986 789L1870 930Z" fill="#2c3e48" stroke="#2c3e48"></path><path d="M558 1006L766 1033L802 948Z" fill="#172a34" stroke="#172a34"></path><path d="M802 948L766 1033L879 1008Z" fill="#0d212a" stroke="#0d212a"></path><path d="M837 246L811 408L924 389Z" fill="#7a8a97" stroke="#7a8a97"></path><path d="M685 560L672 673L790 637Z" fill="#4c5e69" stroke="#4c5e69"></path><path d="M1224 0L1071 165L1113 182Z" fill="#0d212a" stroke="#0d212a"></path><path d="M1113 182L1071 165L1094 275Z" fill="#2c3e48" stroke="#2c3e48"></path><path d="M1675 1271L1746 1295L1682 1247Z" fill="#172a34" stroke="#172a34"></path><path d="M1738 1440L1746 1295L1675 1271Z" fill="#6e7f8b" stroke="#6e7f8b"></path><path d="M1370 1440L1391 1236L1316 1347Z" fill="#41535e" stroke="#41535e"></path><path d="M1370 1440L1590 1384L1425 1227Z" fill="#364853" stroke="#364853"></path><path d="M2024 989L1980 987L1972 1118Z" fill="#0d212a" stroke="#0d212a"></path><path d="M1972 1118L1980 987L1807 989Z" fill="#576874" stroke="#576874"></path><path d="M1181 1351L1342 1440L1316 1347Z" fill="#172a34" stroke="#172a34"></path><path d="M1342 1440L1370 1440L1316 1347Z" fill="#364853" stroke="#364853"></path><path d="M2030 822L2023 696L1986 789Z" fill="#172a34" stroke="#172a34"></path><path d="M1986 789L2023 696L1969 658Z" fill="#172a34" stroke="#172a34"></path><path d="M1969 658L2031 668L1943 639Z" fill="#172a34" stroke="#172a34"></path><path d="M685 560L790 637L803 507Z" fill="#576874" stroke="#576874"></path><path d="M790 637L672 673L847 814Z" fill="#172a34" stroke="#172a34"></path><path d="M1980 987L2030 822L1870 930Z" fill="#637380" stroke="#637380"></path><path d="M2231 616L2031 668L2240 651Z" fill="#576874" stroke="#576874"></path><path d="M2023 696L2031 668L1969 658Z" fill="#7a8a97" stroke="#7a8a97"></path><path d="M612 413L685 560L803 507Z" fill="#41535e" stroke="#41535e"></path><path d="M955 1382L1138 1440L1033 1255Z" fill="#6e7f8b" stroke="#6e7f8b"></path><path d="M1181 1351L1138 1440L1342 1440Z" fill="#41535e" stroke="#41535e"></path><path d="M955 1382L1033 1255L984 1231Z" fill="#2c3e48" stroke="#2c3e48"></path><path d="M1370 1440L1567 1440L1590 1384Z" fill="#6e7f8b" stroke="#6e7f8b"></path><path d="M1590 1384L1738 1440L1675 1271Z" fill="#21343e" stroke="#21343e"></path><path d="M1972 1118L1807 989L1830 1141Z" fill="#6e7f8b" stroke="#6e7f8b"></path><path d="M1980 987L2024 989L2030 822Z" fill="#21343e" stroke="#21343e"></path><path d="M2046 445L1972 414L1943 639Z" fill="#4c5e69" stroke="#4c5e69"></path><path d="M1868 401L1880 264L1788 409Z" fill="#364853" stroke="#364853"></path><path d="M1938 1243L1830 1141L1746 1295Z" fill="#21343e" stroke="#21343e"></path><path d="M1938 1243L1972 1118L1830 1141Z" fill="#7a8a97" stroke="#7a8a97"></path><path d="M1972 414L1945 364L1868 401Z" fill="#2c3e48" stroke="#2c3e48"></path><path d="M1567 1440L1611 1440L1590 1384Z" fill="#7a8a97" stroke="#7a8a97"></path><path d="M924 172L924 389L1094 275Z" fill="#41535e" stroke="#41535e"></path><path d="M811 408L612 413L803 507Z" fill="#364853" stroke="#364853"></path><path d="M861 113L924 172L957 0Z" fill="#172a34" stroke="#172a34"></path><path d="M1071 165L924 172L1094 275Z" fill="#6e7f8b" stroke="#6e7f8b"></path><path d="M819 1287L984 1231L958 1184Z" fill="#7a8a97" stroke="#7a8a97"></path><path d="M1945 364L1880 264L1868 401Z" fill="#41535e" stroke="#41535e"></path><path d="M573 1047L696 1115L766 1033Z" fill="#576874" stroke="#576874"></path><path d="M766 1033L819 1287L896 1039Z" fill="#41535e" stroke="#41535e"></path><path d="M685 560L617 649L672 673Z" fill="#0d212a" stroke="#0d212a"></path><path d="M672 673L583 841L847 814Z" fill="#637380" stroke="#637380"></path><path d="M597 415L617 649L685 560Z" fill="#4c5e69" stroke="#4c5e69"></path><path d="M696 1115L819 1287L766 1033Z" fill="#4c5e69" stroke="#4c5e69"></path><path d="M1992 1440L1938 1243L1746 1295Z" fill="#364853" stroke="#364853"></path><path d="M2162 1104L2091 949L2024 989Z" fill="#364853" stroke="#364853"></path><path d="M2162 1104L2024 989L1972 1118Z" fill="#0d212a" stroke="#0d212a"></path><path d="M2024 989L2091 949L2030 822Z" fill="#4c5e69" stroke="#4c5e69"></path><path d="M2030 822L2240 651L2023 696Z" fill="#364853" stroke="#364853"></path><path d="M1414 144L1353 0L1342 143Z" fill="#7a8a97" stroke="#7a8a97"></path><path d="M1342 143L1224 0L1113 182Z" fill="#7a8a97" stroke="#7a8a97"></path><path d="M1467 0L1353 0L1414 144Z" fill="#172a34" stroke="#172a34"></path><path d="M1467 0L1414 144L1484 0Z" fill="#172a34" stroke="#172a34"></path><path d="M2160 481L2046 445L2031 668Z" fill="#7a8a97" stroke="#7a8a97"></path><path d="M2031 668L2046 445L1943 639Z" fill="#0d212a" stroke="#0d212a"></path><path d="M1972 414L2083 353L1945 364Z" fill="#364853" stroke="#364853"></path><path d="M1909 228L1859 184L1880 264Z" fill="#576874" stroke="#576874"></path><path d="M560 764L583 841L672 673Z" fill="#4c5e69" stroke="#4c5e69"></path><path d="M2004 1284L1961 1233L1938 1243Z" fill="#0d212a" stroke="#0d212a"></path><path d="M1938 1243L1961 1233L1972 1118Z" fill="#4c5e69" stroke="#4c5e69"></path><path d="M1909 228L1880 264L1945 364Z" fill="#6e7f8b" stroke="#6e7f8b"></path><path d="M1880 264L1859 184L1610 311Z" fill="#0d212a" stroke="#0d212a"></path><path d="M1484 0L1414 144L1548 166Z" fill="#576874" stroke="#576874"></path><path d="M573 1047L671 1143L696 1115Z" fill="#364853" stroke="#364853"></path><path d="M696 1115L671 1143L819 1287Z" fill="#4c5e69" stroke="#4c5e69"></path><path d="M1353 0L1224 0L1342 143Z" fill="#4c5e69" stroke="#4c5e69"></path><path d="M938 1440L955 1382L788 1440Z" fill="#21343e" stroke="#21343e"></path><path d="M938 1440L962 1440L955 1382Z" fill="#2c3e48" stroke="#2c3e48"></path><path d="M955 1382L962 1440L1138 1440Z" fill="#6e7f8b" stroke="#6e7f8b"></path><path d="M1969 214L1909 228L1945 364Z" fill="#41535e" stroke="#41535e"></path><path d="M1629 0L1484 0L1548 166Z" fill="#172a34" stroke="#172a34"></path><path d="M1611 1440L1738 1440L1590 1384Z" fill="#172a34" stroke="#172a34"></path><path d="M1838 142L1708 67L1585 206Z" fill="#7a8a97" stroke="#7a8a97"></path><path d="M617 649L560 764L672 673Z" fill="#2c3e48" stroke="#2c3e48"></path><path d="M558 1006L573 1047L766 1033Z" fill="#4c5e69" stroke="#4c5e69"></path><path d="M788 1440L955 1382L819 1287Z" fill="#4c5e69" stroke="#4c5e69"></path><path d="M1978 107L1838 142L1859 184Z" fill="#576874" stroke="#576874"></path><path d="M1859 184L1838 142L1585 206Z" fill="#7a8a97" stroke="#7a8a97"></path><path d="M2162 1104L2134 905L2091 949Z" fill="#4c5e69" stroke="#4c5e69"></path><path d="M2091 949L2134 905L2030 822Z" fill="#21343e" stroke="#21343e"></path><path d="M924 172L861 113L837 246Z" fill="#6e7f8b" stroke="#6e7f8b"></path><path d="M837 246L612 413L811 408Z" fill="#637380" stroke="#637380"></path><path d="M617 649L530 745L560 764Z" fill="#7a8a97" stroke="#7a8a97"></path><path d="M957 0L924 172L1071 165Z" fill="#2c3e48" stroke="#2c3e48"></path><path d="M1834 0L1629 0L1708 67Z" fill="#0d212a" stroke="#0d212a"></path><path d="M1708 67L1629 0L1548 166Z" fill="#0d212a" stroke="#0d212a"></path><path d="M597 415L612 413L596 221Z" fill="#2c3e48" stroke="#2c3e48"></path><path d="M437 673L530 745L617 649Z" fill="#41535e" stroke="#41535e"></path><path d="M560 764L530 745L583 841Z" fill="#172a34" stroke="#172a34"></path><path d="M558 1006L802 948L583 841Z" fill="#41535e" stroke="#41535e"></path><path d="M736 1410L788 1440L819 1287Z" fill="#4c5e69" stroke="#4c5e69"></path><path d="M478 927L558 1006L583 841Z" fill="#172a34" stroke="#172a34"></path><path d="M547 405L597 415L596 221Z" fill="#2c3e48" stroke="#2c3e48"></path><path d="M612 413L597 415L685 560Z" fill="#0d212a" stroke="#0d212a"></path><path d="M1909 228L1969 214L1859 184Z" fill="#172a34" stroke="#172a34"></path><path d="M1838 142L1834 0L1708 67Z" fill="#0d212a" stroke="#0d212a"></path><path d="M2083 353L1969 214L1945 364Z" fill="#7a8a97" stroke="#7a8a97"></path><path d="M1992 1440L2004 1284L1938 1243Z" fill="#21343e" stroke="#21343e"></path><path d="M1961 1233L2041 1234L1972 1118Z" fill="#21343e" stroke="#21343e"></path><path d="M2004 1284L2041 1234L1961 1233Z" fill="#0d212a" stroke="#0d212a"></path><path d="M2046 445L2083 353L1972 414Z" fill="#7a8a97" stroke="#7a8a97"></path><path d="M2160 481L2083 353L2046 445Z" fill="#7a8a97" stroke="#7a8a97"></path><path d="M1224 0L957 0L1071 165Z" fill="#637380" stroke="#637380"></path><path d="M596 221L612 413L837 246Z" fill="#2c3e48" stroke="#2c3e48"></path><path d="M2231 616L2160 481L2031 668Z" fill="#172a34" stroke="#172a34"></path><path d="M736 1410L819 1287L695 1407Z" fill="#21343e" stroke="#21343e"></path><path d="M724 140L837 246L861 113Z" fill="#576874" stroke="#576874"></path><path d="M597 415L547 405L617 649Z" fill="#637380" stroke="#637380"></path><path d="M2041 1234L2162 1104L1972 1118Z" fill="#172a34" stroke="#172a34"></path><path d="M2134 905L2222 882L2030 822Z" fill="#172a34" stroke="#172a34"></path><path d="M2169 1277L2162 1104L2041 1234Z" fill="#41535e" stroke="#41535e"></path><path d="M2240 888L2222 882L2134 905Z" fill="#637380" stroke="#637380"></path><path d="M850 0L724 140L861 113Z" fill="#0d212a" stroke="#0d212a"></path><path d="M530 745L478 927L583 841Z" fill="#6e7f8b" stroke="#6e7f8b"></path><path d="M558 1006L426 1119L573 1047Z" fill="#172a34" stroke="#172a34"></path><path d="M695 1407L819 1287L671 1143Z" fill="#0d212a" stroke="#0d212a"></path><path d="M396 867L478 927L530 745Z" fill="#364853" stroke="#364853"></path><path d="M957 0L902 0L861 113Z" fill="#172a34" stroke="#172a34"></path><path d="M568 1401L602 1440L655 1440Z" fill="#2c3e48" stroke="#2c3e48"></path><path d="M2240 651L2031 668L2023 696Z" fill="#4c5e69" stroke="#4c5e69"></path><path d="M2222 882L2240 651L2030 822Z" fill="#6e7f8b" stroke="#6e7f8b"></path><path d="M2162 1104L2240 888L2134 905Z" fill="#576874" stroke="#576874"></path><path d="M2222 882L2242 880L2240 651Z" fill="#2c3e48" stroke="#2c3e48"></path><path d="M2240 888L2242 880L2222 882Z" fill="#7a8a97" stroke="#7a8a97"></path><path d="M1871 0L1834 0L1838 142Z" fill="#576874" stroke="#576874"></path><path d="M1978 107L1859 184L1969 214Z" fill="#4c5e69" stroke="#4c5e69"></path><path d="M2166 143L1969 214L2083 353Z" fill="#21343e" stroke="#21343e"></path><path d="M2166 143L1978 107L1969 214Z" fill="#21343e" stroke="#21343e"></path><path d="M2188 308L2083 353L2160 481Z" fill="#21343e" stroke="#21343e"></path><path d="M902 0L850 0L861 113Z" fill="#21343e" stroke="#21343e"></path><path d="M695 1407L568 1401L655 1440Z" fill="#2c3e48" stroke="#2c3e48"></path><path d="M736 1410L655 1440L788 1440Z" fill="#576874" stroke="#576874"></path><path d="M393 612L437 673L617 649Z" fill="#364853" stroke="#364853"></path><path d="M1978 107L1871 0L1838 142Z" fill="#4c5e69" stroke="#4c5e69"></path><path d="M724 140L596 221L837 246Z" fill="#576874" stroke="#576874"></path><path d="M547 405L393 612L617 649Z" fill="#7a8a97" stroke="#7a8a97"></path><path d="M588 118L596 221L724 140Z" fill="#637380" stroke="#637380"></path><path d="M1738 1440L1992 1440L1746 1295Z" fill="#21343e" stroke="#21343e"></path><path d="M2004 1284L2169 1277L2041 1234Z" fill="#576874" stroke="#576874"></path><path d="M2207 312L2160 481L2284 408Z" fill="#2c3e48" stroke="#2c3e48"></path><path d="M2207 312L2188 308L2160 481Z" fill="#0d212a" stroke="#0d212a"></path><path d="M1978 107L1987 0L1871 0Z" fill="#364853" stroke="#364853"></path><path d="M437 673L396 867L530 745Z" fill="#4c5e69" stroke="#4c5e69"></path><path d="M378 991L426 1119L558 1006Z" fill="#2c3e48" stroke="#2c3e48"></path><path d="M426 1119L671 1143L573 1047Z" fill="#2c3e48" stroke="#2c3e48"></path><path d="M695 1407L655 1440L736 1410Z" fill="#0d212a" stroke="#0d212a"></path><path d="M2058 1440L2169 1277L2004 1284Z" fill="#4c5e69" stroke="#4c5e69"></path><path d="M2162 1104L2344 954L2240 888Z" fill="#2c3e48" stroke="#2c3e48"></path><path d="M2362 757L2348 754L2242 880Z" fill="#7a8a97" stroke="#7a8a97"></path><path d="M370 499L393 612L547 405Z" fill="#21343e" stroke="#21343e"></path><path d="M437 673L326 745L396 867Z" fill="#41535e" stroke="#41535e"></path><path d="M2284 408L2160 481L2346 486Z" fill="#637380" stroke="#637380"></path><path d="M2134 0L1987 0L1978 107Z" fill="#172a34" stroke="#172a34"></path><path d="M251 871L384 906L396 867Z" fill="#41535e" stroke="#41535e"></path><path d="M396 867L384 906L478 927Z" fill="#6e7f8b" stroke="#6e7f8b"></path><path d="M1992 1440L2058 1440L2004 1284Z" fill="#0d212a" stroke="#0d212a"></path><path d="M378 991L558 1006L478 927Z" fill="#637380" stroke="#637380"></path><path d="M334 1030L378 991L251 871Z" fill="#7a8a97" stroke="#7a8a97"></path><path d="M384 906L378 991L478 927Z" fill="#6e7f8b" stroke="#6e7f8b"></path><path d="M2166 143L2083 353L2188 308Z" fill="#4c5e69" stroke="#4c5e69"></path><path d="M626 0L588 118L724 140Z" fill="#576874" stroke="#576874"></path><path d="M596 221L437 282L547 405Z" fill="#2c3e48" stroke="#2c3e48"></path><path d="M2242 880L2348 754L2240 651Z" fill="#41535e" stroke="#41535e"></path><path d="M2240 651L2335 564L2231 616Z" fill="#637380" stroke="#637380"></path><path d="M2344 954L2242 880L2240 888Z" fill="#2c3e48" stroke="#2c3e48"></path><path d="M2335 564L2160 481L2231 616Z" fill="#172a34" stroke="#172a34"></path><path d="M2207 312L2166 143L2188 308Z" fill="#7a8a97" stroke="#7a8a97"></path><path d="M568 1401L695 1407L671 1143Z" fill="#637380" stroke="#637380"></path><path d="M411 1313L568 1401L671 1143Z" fill="#7a8a97" stroke="#7a8a97"></path><path d="M588 118L554 146L596 221Z" fill="#41535e" stroke="#41535e"></path><path d="M2357 585L2335 564L2240 651Z" fill="#0d212a" stroke="#0d212a"></path><path d="M2163 1440L2230 1259L2169 1277Z" fill="#41535e" stroke="#41535e"></path><path d="M2169 1277L2230 1259L2162 1104Z" fill="#41535e" stroke="#41535e"></path><path d="M2338 1126L2344 954L2162 1104Z" fill="#7a8a97" stroke="#7a8a97"></path><path d="M343 451L370 499L547 405Z" fill="#21343e" stroke="#21343e"></path><path d="M393 612L326 745L437 673Z" fill="#4c5e69" stroke="#4c5e69"></path><path d="M2344 954L2362 757L2242 880Z" fill="#0d212a" stroke="#0d212a"></path><path d="M2348 754L2357 585L2240 651Z" fill="#6e7f8b" stroke="#6e7f8b"></path><path d="M203 702L326 745L393 612Z" fill="#0d212a" stroke="#0d212a"></path><path d="M2230 1259L2295 1156L2162 1104Z" fill="#637380" stroke="#637380"></path><path d="M2362 757L2357 585L2348 754Z" fill="#4c5e69" stroke="#4c5e69"></path><path d="M2335 564L2346 486L2160 481Z" fill="#2c3e48" stroke="#2c3e48"></path><path d="M2331 187L2166 143L2207 312Z" fill="#6e7f8b" stroke="#6e7f8b"></path><path d="M433 177L437 282L596 221Z" fill="#364853" stroke="#364853"></path><path d="M2419 548L2346 486L2335 564Z" fill="#41535e" stroke="#41535e"></path><path d="M2284 408L2318 308L2207 312Z" fill="#21343e" stroke="#21343e"></path><path d="M334 1030L379 1143L426 1119Z" fill="#364853" stroke="#364853"></path><path d="M426 1119L411 1313L671 1143Z" fill="#2c3e48" stroke="#2c3e48"></path><path d="M334 1030L426 1119L378 991Z" fill="#172a34" stroke="#172a34"></path><path d="M251 871L378 991L384 906Z" fill="#637380" stroke="#637380"></path><path d="M850 0L626 0L724 140Z" fill="#0d212a" stroke="#0d212a"></path><path d="M588 118L496 0L554 146Z" fill="#21343e" stroke="#21343e"></path><path d="M554 146L433 177L596 221Z" fill="#41535e" stroke="#41535e"></path><path d="M437 282L343 451L547 405Z" fill="#637380" stroke="#637380"></path><path d="M202 546L203 702L393 612Z" fill="#172a34" stroke="#172a34"></path><path d="M2364 1141L2338 1126L2295 1156Z" fill="#0d212a" stroke="#0d212a"></path><path d="M2295 1156L2338 1126L2162 1104Z" fill="#637380" stroke="#637380"></path><path d="M2560 818L2513 743L2362 757Z" fill="#2c3e48" stroke="#2c3e48"></path><path d="M2058 1440L2163 1440L2169 1277Z" fill="#172a34" stroke="#172a34"></path><path d="M2389 1233L2364 1141L2295 1156Z" fill="#2c3e48" stroke="#2c3e48"></path><path d="M2494 398L2318 308L2284 408Z" fill="#2c3e48" stroke="#2c3e48"></path><path d="M323 426L343 451L437 282Z" fill="#0d212a" stroke="#0d212a"></path><path d="M323 426L320 440L343 451Z" fill="#21343e" stroke="#21343e"></path><path d="M343 451L320 440L370 499Z" fill="#2c3e48" stroke="#2c3e48"></path><path d="M229 297L323 426L437 282Z" fill="#6e7f8b" stroke="#6e7f8b"></path><path d="M2389 1233L2295 1156L2230 1259Z" fill="#364853" stroke="#364853"></path><path d="M2338 1126L2364 1141L2344 954Z" fill="#0d212a" stroke="#0d212a"></path><path d="M204 1315L411 1313L379 1143Z" fill="#41535e" stroke="#41535e"></path><path d="M379 1143L411 1313L426 1119Z" fill="#2c3e48" stroke="#2c3e48"></path><path d="M568 1401L312 1440L602 1440Z" fill="#7a8a97" stroke="#7a8a97"></path><path d="M496 0L433 177L554 146Z" fill="#576874" stroke="#576874"></path><path d="M2357 585L2419 548L2335 564Z" fill="#7a8a97" stroke="#7a8a97"></path><path d="M2346 486L2494 398L2284 408Z" fill="#6e7f8b" stroke="#6e7f8b"></path><path d="M2513 743L2419 548L2357 585Z" fill="#7a8a97" stroke="#7a8a97"></path><path d="M2513 743L2357 585L2362 757Z" fill="#21343e" stroke="#21343e"></path><path d="M2364 0L2134 0L2166 143Z" fill="#4c5e69" stroke="#4c5e69"></path><path d="M2166 143L2134 0L1978 107Z" fill="#6e7f8b" stroke="#6e7f8b"></path><path d="M326 745L251 871L396 867Z" fill="#172a34" stroke="#172a34"></path><path d="M334 1030L184 1106L379 1143Z" fill="#4c5e69" stroke="#4c5e69"></path><path d="M203 702L251 871L326 745Z" fill="#21343e" stroke="#21343e"></path><path d="M358 65L383 208L433 177Z" fill="#0d212a" stroke="#0d212a"></path><path d="M433 177L383 208L437 282Z" fill="#364853" stroke="#364853"></path><path d="M2318 308L2331 187L2207 312Z" fill="#364853" stroke="#364853"></path><path d="M2470 204L2331 187L2318 308Z" fill="#637380" stroke="#637380"></path><path d="M2319 1440L2389 1233L2230 1259Z" fill="#2c3e48" stroke="#2c3e48"></path><path d="M2560 818L2362 757L2560 881Z" fill="#7a8a97" stroke="#7a8a97"></path><path d="M626 0L496 0L588 118Z" fill="#7a8a97" stroke="#7a8a97"></path><path d="M202 546L320 440L172 522Z" fill="#172a34" stroke="#172a34"></path><path d="M202 546L370 499L320 440Z" fill="#637380" stroke="#637380"></path><path d="M202 546L393 612L370 499Z" fill="#4c5e69" stroke="#4c5e69"></path><path d="M103 726L210 920L251 871Z" fill="#637380" stroke="#637380"></path><path d="M251 871L210 920L334 1030Z" fill="#4c5e69" stroke="#4c5e69"></path><path d="M2362 757L2344 954L2560 881Z" fill="#21343e" stroke="#21343e"></path><path d="M2419 548L2494 398L2346 486Z" fill="#7a8a97" stroke="#7a8a97"></path><path d="M172 522L320 440L102 402Z" fill="#637380" stroke="#637380"></path><path d="M172 522L192 557L202 546Z" fill="#7a8a97" stroke="#7a8a97"></path><path d="M202 546L192 557L203 702Z" fill="#4c5e69" stroke="#4c5e69"></path><path d="M48 1002L167 1034L210 920Z" fill="#21343e" stroke="#21343e"></path><path d="M320 440L323 426L102 402Z" fill="#576874" stroke="#576874"></path><path d="M2163 1440L2319 1440L2230 1259Z" fill="#637380" stroke="#637380"></path><path d="M229 297L437 282L383 208Z" fill="#7a8a97" stroke="#7a8a97"></path><path d="M192 557L103 726L203 702Z" fill="#4c5e69" stroke="#4c5e69"></path><path d="M2560 528L2494 398L2419 548Z" fill="#41535e" stroke="#41535e"></path><path d="M103 726L251 871L203 702Z" fill="#637380" stroke="#637380"></path><path d="M210 920L167 1034L334 1030Z" fill="#21343e" stroke="#21343e"></path><path d="M167 1034L184 1106L334 1030Z" fill="#6e7f8b" stroke="#6e7f8b"></path><path d="M496 0L358 65L433 177Z" fill="#7a8a97" stroke="#7a8a97"></path><path d="M2560 881L2344 954L2560 1082Z" fill="#637380" stroke="#637380"></path><path d="M2513 743L2560 685L2419 548Z" fill="#637380" stroke="#637380"></path><path d="M2344 954L2364 1141L2519 1121Z" fill="#0d212a" stroke="#0d212a"></path><path d="M194 192L229 297L383 208Z" fill="#4c5e69" stroke="#4c5e69"></path><path d="M2560 818L2560 685L2513 743Z" fill="#576874" stroke="#576874"></path><path d="M2519 1121L2364 1141L2389 1233Z" fill="#576874" stroke="#576874"></path><path d="M496 0L397 0L358 65Z" fill="#172a34" stroke="#172a34"></path><path d="M2560 685L2560 602L2419 548Z" fill="#172a34" stroke="#172a34"></path><path d="M2485 1266L2519 1121L2389 1233Z" fill="#6e7f8b" stroke="#6e7f8b"></path><path d="M184 1106L191 1173L379 1143Z" fill="#172a34" stroke="#172a34"></path><path d="M411 1313L312 1440L568 1401Z" fill="#6e7f8b" stroke="#6e7f8b"></path><path d="M135 1203L191 1173L184 1106Z" fill="#21343e" stroke="#21343e"></path><path d="M204 1315L279 1376L411 1313Z" fill="#7a8a97" stroke="#7a8a97"></path><path d="M2560 602L2560 528L2419 548Z" fill="#2c3e48" stroke="#2c3e48"></path><path d="M279 1376L312 1440L411 1313Z" fill="#576874" stroke="#576874"></path><path d="M2319 1440L2389 1440L2389 1233Z" fill="#364853" stroke="#364853"></path><path d="M2389 1440L2485 1266L2389 1233Z" fill="#41535e" stroke="#41535e"></path><path d="M0 639L192 557L0 569Z" fill="#21343e" stroke="#21343e"></path><path d="M0 639L103 726L192 557Z" fill="#6e7f8b" stroke="#6e7f8b"></path><path d="M135 1203L204 1315L191 1173Z" fill="#6e7f8b" stroke="#6e7f8b"></path><path d="M2560 1269L2560 1082L2519 1121Z" fill="#2c3e48" stroke="#2c3e48"></path><path d="M2519 1121L2560 1082L2344 954Z" fill="#4c5e69" stroke="#4c5e69"></path><path d="M2560 224L2470 204L2494 398Z" fill="#364853" stroke="#364853"></path><path d="M2494 398L2470 204L2318 308Z" fill="#6e7f8b" stroke="#6e7f8b"></path><path d="M2331 187L2364 0L2166 143Z" fill="#576874" stroke="#576874"></path><path d="M191 1173L204 1315L379 1143Z" fill="#172a34" stroke="#172a34"></path><path d="M279 1376L268 1440L312 1440Z" fill="#7a8a97" stroke="#7a8a97"></path><path d="M135 1203L184 1106L0 1028Z" fill="#364853" stroke="#364853"></path><path d="M2560 528L2560 386L2494 398Z" fill="#21343e" stroke="#21343e"></path><path d="M2471 138L2364 0L2331 187Z" fill="#364853" stroke="#364853"></path><path d="M180 1440L268 1440L279 1376Z" fill="#7a8a97" stroke="#7a8a97"></path><path d="M2470 204L2471 138L2331 187Z" fill="#637380" stroke="#637380"></path><path d="M2560 224L2471 138L2470 204Z" fill="#4c5e69" stroke="#4c5e69"></path><path d="M198 131L194 192L383 208Z" fill="#0d212a" stroke="#0d212a"></path><path d="M229 297L102 402L323 426Z" fill="#172a34" stroke="#172a34"></path><path d="M198 131L383 208L358 65Z" fill="#4c5e69" stroke="#4c5e69"></path><path d="M48 1002L184 1106L167 1034Z" fill="#7a8a97" stroke="#7a8a97"></path><path d="M204 1315L180 1440L279 1376Z" fill="#7a8a97" stroke="#7a8a97"></path><path d="M397 0L310 0L358 65Z" fill="#41535e" stroke="#41535e"></path><path d="M0 224L102 402L229 297Z" fill="#21343e" stroke="#21343e"></path><path d="M2560 1342L2560 1269L2485 1266Z" fill="#6e7f8b" stroke="#6e7f8b"></path><path d="M2485 1266L2560 1269L2519 1121Z" fill="#41535e" stroke="#41535e"></path><path d="M196 81L198 131L358 65Z" fill="#7a8a97" stroke="#7a8a97"></path><path d="M0 224L0 406L102 402Z" fill="#0d212a" stroke="#0d212a"></path><path d="M0 917L210 920L103 726Z" fill="#637380" stroke="#637380"></path><path d="M0 917L48 1002L210 920Z" fill="#637380" stroke="#637380"></path><path d="M2560 386L2560 224L2494 398Z" fill="#7a8a97" stroke="#7a8a97"></path><path d="M2471 138L2508 0L2364 0Z" fill="#2c3e48" stroke="#2c3e48"></path><path d="M310 0L196 81L358 65Z" fill="#2c3e48" stroke="#2c3e48"></path><path d="M0 224L229 297L194 192Z" fill="#6e7f8b" stroke="#6e7f8b"></path><path d="M2389 1440L2560 1342L2485 1266Z" fill="#6e7f8b" stroke="#6e7f8b"></path><path d="M0 1322L204 1315L135 1203Z" fill="#172a34" stroke="#172a34"></path><path d="M0 1322L180 1440L204 1315Z" fill="#0d212a" stroke="#0d212a"></path><path d="M0 569L172 522L102 402Z" fill="#21343e" stroke="#21343e"></path><path d="M0 569L192 557L172 522Z" fill="#0d212a" stroke="#0d212a"></path><path d="M0 639L0 917L103 726Z" fill="#172a34" stroke="#172a34"></path><path d="M48 1002L0 1028L184 1106Z" fill="#576874" stroke="#576874"></path><path d="M0 406L0 569L102 402Z" fill="#364853" stroke="#364853"></path><path d="M0 917L0 998L48 1002Z" fill="#21343e" stroke="#21343e"></path><path d="M0 998L0 1028L48 1002Z" fill="#21343e" stroke="#21343e"></path><path d="M2389 1440L2560 1440L2560 1342Z" fill="#21343e" stroke="#21343e"></path><path d="M2560 32L2508 0L2471 138Z" fill="#4c5e69" stroke="#4c5e69"></path><path d="M0 224L194 192L0 144Z" fill="#172a34" stroke="#172a34"></path><path d="M2560 224L2560 32L2471 138Z" fill="#6e7f8b" stroke="#6e7f8b"></path><path d="M0 1028L0 1221L135 1203Z" fill="#0d212a" stroke="#0d212a"></path><path d="M2560 32L2560 0L2508 0Z" fill="#21343e" stroke="#21343e"></path><path d="M0 144L194 192L198 131Z" fill="#2c3e48" stroke="#2c3e48"></path><path d="M0 1221L0 1322L135 1203Z" fill="#576874" stroke="#576874"></path><path d="M310 0L90 0L196 81Z" fill="#6e7f8b" stroke="#6e7f8b"></path><path d="M196 81L0 144L198 131Z" fill="#7a8a97" stroke="#7a8a97"></path><path d="M90 0L0 144L196 81Z" fill="#41535e" stroke="#41535e"></path><path d="M0 1322L0 1440L180 1440Z" fill="#0d212a" stroke="#0d212a"></path><path d="M90 0L0 0L0 144Z" fill="#637380" stroke="#637380"></path></g></svg>