<svg id="visual" viewBox="0 0 900 600" width="900" height="600" xmlns="http://www.w3.org/2000/svg" xmlns:xlink="http://www.w3.org/1999/xlink" version="1.1"><g stroke-width="1" stroke-linejoin="bevel"><path d="M493.6 286.7L523.8 290.7L486.6 234Z" fill="#1d3e58" stroke="#1d3e58"></path><path d="M523.8 290.7L566.8 203L486.6 234Z" fill="#163248" stroke="#163248"></path><path d="M575.8 421L579.8 299.3L523.8 290.7Z" fill="#437eaf" stroke="#437eaf"></path><path d="M523.8 290.7L608.1 258.7L566.8 203Z" fill="#2b577a" stroke="#2b577a"></path><path d="M579.8 299.3L608.1 258.7L523.8 290.7Z" fill="#091c2a" stroke="#091c2a"></path><path d="M608.1 258.7L610.1 211L566.8 203Z" fill="#2b577a" stroke="#2b577a"></path><path d="M418.4 338.3L462.6 363.3L493.6 286.7Z" fill="#244a69" stroke="#244a69"></path><path d="M493.6 286.7L462.6 363.3L523.8 290.7Z" fill="#437eaf" stroke="#437eaf"></path><path d="M423.4 130.3L401.4 211L486.6 234Z" fill="#163248" stroke="#163248"></path><path d="M486.6 234L379.4 267.7L493.6 286.7Z" fill="#33648b" stroke="#33648b"></path><path d="M379.4 267.7L418.4 338.3L493.6 286.7Z" fill="#244a69" stroke="#244a69"></path><path d="M401.4 211L379.4 267.7L486.6 234Z" fill="#244a69" stroke="#244a69"></path><path d="M546.8 109.3L509.6 119.3L566.8 203Z" fill="#2b577a" stroke="#2b577a"></path><path d="M566.8 203L509.6 119.3L486.6 234Z" fill="#437eaf" stroke="#437eaf"></path><path d="M575.8 421L632.1 336.3L579.8 299.3Z" fill="#1d3e58" stroke="#1d3e58"></path><path d="M579.8 299.3L632.1 336.3L608.1 258.7Z" fill="#33648b" stroke="#33648b"></path><path d="M691.3 183L662.1 142.3L610.1 211Z" fill="#0f2739" stroke="#0f2739"></path><path d="M379.4 267.7L379.2 316.3L418.4 338.3Z" fill="#1d3e58" stroke="#1d3e58"></path><path d="M401.4 421L461.6 436L462.6 363.3Z" fill="#244a69" stroke="#244a69"></path><path d="M662.1 142.3L546.8 109.3L566.8 203Z" fill="#0f2739" stroke="#0f2739"></path><path d="M524.6 58.7L423.4 130.3L509.6 119.3Z" fill="#1d3e58" stroke="#1d3e58"></path><path d="M509.6 119.3L423.4 130.3L486.6 234Z" fill="#091c2a" stroke="#091c2a"></path><path d="M401.4 211L351.2 226L379.4 267.7Z" fill="#00101c" stroke="#00101c"></path><path d="M341.2 126.3L351.2 226L401.4 211Z" fill="#2b577a" stroke="#2b577a"></path><path d="M379.4 267.7L324.2 260.7L379.2 316.3Z" fill="#2b577a" stroke="#2b577a"></path><path d="M462.6 363.3L575.8 421L523.8 290.7Z" fill="#3b719d" stroke="#3b719d"></path><path d="M658.1 77.7L550.8 76.7L546.8 109.3Z" fill="#1d3e58" stroke="#1d3e58"></path><path d="M546.8 109.3L524.6 58.7L509.6 119.3Z" fill="#1d3e58" stroke="#1d3e58"></path><path d="M401.4 421L462.6 363.3L418.4 338.3Z" fill="#33648b" stroke="#33648b"></path><path d="M462.6 363.3L461.6 436L575.8 421Z" fill="#163248" stroke="#163248"></path><path d="M575.8 421L619.1 411L632.1 336.3Z" fill="#1d3e58" stroke="#1d3e58"></path><path d="M691.3 183L610.1 211L608.1 258.7Z" fill="#437eaf" stroke="#437eaf"></path><path d="M610.1 211L662.1 142.3L566.8 203Z" fill="#163248" stroke="#163248"></path><path d="M351.2 226L324.2 260.7L379.4 267.7Z" fill="#244a69" stroke="#244a69"></path><path d="M337.2 359L401.4 421L418.4 338.3Z" fill="#244a69" stroke="#244a69"></path><path d="M294.9 202L324.2 260.7L351.2 226Z" fill="#2b577a" stroke="#2b577a"></path><path d="M721.3 395L693.3 319.3L632.1 336.3Z" fill="#33648b" stroke="#33648b"></path><path d="M632.1 336.3L693.3 319.3L608.1 258.7Z" fill="#1d3e58" stroke="#1d3e58"></path><path d="M705.3 294.7L691.3 183L608.1 258.7Z" fill="#3b719d" stroke="#3b719d"></path><path d="M693.3 319.3L705.3 294.7L608.1 258.7Z" fill="#244a69" stroke="#244a69"></path><path d="M337.2 359L418.4 338.3L379.2 316.3Z" fill="#3b719d" stroke="#3b719d"></path><path d="M558.8 0L524.6 58.7L550.8 76.7Z" fill="#0f2739" stroke="#0f2739"></path><path d="M550.8 76.7L524.6 58.7L546.8 109.3Z" fill="#091c2a" stroke="#091c2a"></path><path d="M401.4 421L454.6 447.7L461.6 436Z" fill="#163248" stroke="#163248"></path><path d="M547.8 492.7L598.1 475.7L575.8 421Z" fill="#2b577a" stroke="#2b577a"></path><path d="M324.2 260.7L337.2 359L379.2 316.3Z" fill="#163248" stroke="#163248"></path><path d="M383.4 66.7L341.2 126.3L423.4 130.3Z" fill="#163248" stroke="#163248"></path><path d="M423.4 130.3L341.2 126.3L401.4 211Z" fill="#2b577a" stroke="#2b577a"></path><path d="M691.3 183L696.3 131.3L662.1 142.3Z" fill="#163248" stroke="#163248"></path><path d="M662.1 142.3L658.1 77.7L546.8 109.3Z" fill="#33648b" stroke="#33648b"></path><path d="M761.5 204L696.3 131.3L691.3 183Z" fill="#2b577a" stroke="#2b577a"></path><path d="M341.2 126.3L294.9 202L351.2 226Z" fill="#2b577a" stroke="#2b577a"></path><path d="M324.2 260.7L259.9 334.3L337.2 359Z" fill="#00101c" stroke="#00101c"></path><path d="M447.6 0L383.4 66.7L423.4 130.3Z" fill="#33648b" stroke="#33648b"></path><path d="M696.3 131.3L658.1 77.7L662.1 142.3Z" fill="#2b577a" stroke="#2b577a"></path><path d="M547.8 492.7L575.8 421L461.6 436Z" fill="#3b719d" stroke="#3b719d"></path><path d="M575.8 421L598.1 475.7L619.1 411Z" fill="#33648b" stroke="#33648b"></path><path d="M721.3 395L739.5 334.3L693.3 319.3Z" fill="#4b8cc2" stroke="#4b8cc2"></path><path d="M383.4 66.7L338.2 100.7L341.2 126.3Z" fill="#163248" stroke="#163248"></path><path d="M341.2 126.3L264.9 108.3L294.9 202Z" fill="#33648b" stroke="#33648b"></path><path d="M704.3 0L655.3 70.7L658.1 77.7Z" fill="#163248" stroke="#163248"></path><path d="M658.1 77.7L655.3 70.7L550.8 76.7Z" fill="#437eaf" stroke="#437eaf"></path><path d="M505.6 508.3L547.8 492.7L461.6 436Z" fill="#2b577a" stroke="#2b577a"></path><path d="M693.3 319.3L739.5 334.3L705.3 294.7Z" fill="#33648b" stroke="#33648b"></path><path d="M705.3 294.7L755.5 241.7L691.3 183Z" fill="#33648b" stroke="#33648b"></path><path d="M721.3 395L632.1 336.3L619.1 411Z" fill="#163248" stroke="#163248"></path><path d="M262.9 405L351.2 438.7L337.2 359Z" fill="#3b719d" stroke="#3b719d"></path><path d="M337.2 359L351.2 438.7L401.4 421Z" fill="#091c2a" stroke="#091c2a"></path><path d="M401.4 421L444.4 503.7L454.6 447.7Z" fill="#244a69" stroke="#244a69"></path><path d="M454.6 447.7L505.6 508.3L461.6 436Z" fill="#00101c" stroke="#00101c"></path><path d="M790.8 297.7L755.5 241.7L705.3 294.7Z" fill="#244a69" stroke="#244a69"></path><path d="M682.3 503.7L721.3 395L619.1 411Z" fill="#00101c" stroke="#00101c"></path><path d="M444.4 503.7L505.6 508.3L454.6 447.7Z" fill="#091c2a" stroke="#091c2a"></path><path d="M547.8 492.7L584.8 520.3L598.1 475.7Z" fill="#00101c" stroke="#00101c"></path><path d="M755.5 241.7L761.5 204L691.3 183Z" fill="#163248" stroke="#163248"></path><path d="M704.3 0L632.1 0L655.3 70.7Z" fill="#2b577a" stroke="#2b577a"></path><path d="M351.2 438.7L444.4 503.7L401.4 421Z" fill="#0f2739" stroke="#0f2739"></path><path d="M632.1 0L558.8 0L550.8 76.7Z" fill="#00101c" stroke="#00101c"></path><path d="M524.6 58.7L447.6 0L423.4 130.3Z" fill="#00101c" stroke="#00101c"></path><path d="M238.9 248.7L259.9 334.3L324.2 260.7Z" fill="#00101c" stroke="#00101c"></path><path d="M728.5 486.7L741.5 391L721.3 395Z" fill="#3b719d" stroke="#3b719d"></path><path d="M721.3 395L741.5 391L739.5 334.3Z" fill="#163248" stroke="#163248"></path><path d="M739.5 334.3L790.8 297.7L705.3 294.7Z" fill="#437eaf" stroke="#437eaf"></path><path d="M827.8 303.3L797.8 168L761.5 204Z" fill="#244a69" stroke="#244a69"></path><path d="M558.8 0L447.6 0L524.6 58.7Z" fill="#437eaf" stroke="#437eaf"></path><path d="M274.9 78.7L264.9 108.3L338.2 100.7Z" fill="#00101c" stroke="#00101c"></path><path d="M505.6 508.3L584.8 520.3L547.8 492.7Z" fill="#2b577a" stroke="#2b577a"></path><path d="M598.1 475.7L682.3 503.7L619.1 411Z" fill="#0f2739" stroke="#0f2739"></path><path d="M628.1 552.3L584.8 520.3L577.8 600Z" fill="#33648b" stroke="#33648b"></path><path d="M447.6 0L419.4 0L383.4 66.7Z" fill="#091c2a" stroke="#091c2a"></path><path d="M175.7 202L238.9 248.7L294.9 202Z" fill="#2b577a" stroke="#2b577a"></path><path d="M294.9 202L238.9 248.7L324.2 260.7Z" fill="#3b719d" stroke="#3b719d"></path><path d="M805.8 380L790.8 297.7L739.5 334.3Z" fill="#1d3e58" stroke="#1d3e58"></path><path d="M655.3 70.7L632.1 0L550.8 76.7Z" fill="#091c2a" stroke="#091c2a"></path><path d="M772.5 51.7L658.1 77.7L696.3 131.3Z" fill="#2b577a" stroke="#2b577a"></path><path d="M379.2 0L338.2 100.7L383.4 66.7Z" fill="#3b719d" stroke="#3b719d"></path><path d="M338.2 100.7L264.9 108.3L341.2 126.3Z" fill="#2b577a" stroke="#2b577a"></path><path d="M419.4 0L379.2 0L383.4 66.7Z" fill="#4b8cc2" stroke="#4b8cc2"></path><path d="M259.9 334.3L262.9 405L337.2 359Z" fill="#1d3e58" stroke="#1d3e58"></path><path d="M351.2 438.7L389.4 555.3L444.4 503.7Z" fill="#2b577a" stroke="#2b577a"></path><path d="M219.7 391L262.9 405L259.9 334.3Z" fill="#33648b" stroke="#33648b"></path><path d="M238.9 248.7L225.7 327.3L259.9 334.3Z" fill="#437eaf" stroke="#437eaf"></path><path d="M379.2 0L274.9 78.7L338.2 100.7Z" fill="#163248" stroke="#163248"></path><path d="M827.8 303.3L761.5 204L755.5 241.7Z" fill="#091c2a" stroke="#091c2a"></path><path d="M761.5 204L797.8 168L696.3 131.3Z" fill="#2b577a" stroke="#2b577a"></path><path d="M628.1 552.3L682.3 503.7L598.1 475.7Z" fill="#00101c" stroke="#00101c"></path><path d="M741.5 391L805.8 380L739.5 334.3Z" fill="#244a69" stroke="#244a69"></path><path d="M797.8 168L786.5 109.3L696.3 131.3Z" fill="#0f2739" stroke="#0f2739"></path><path d="M262.9 405L306.9 494.3L351.2 438.7Z" fill="#0f2739" stroke="#0f2739"></path><path d="M577.8 600L584.8 520.3L505.6 508.3Z" fill="#244a69" stroke="#244a69"></path><path d="M682.3 503.7L728.5 486.7L721.3 395Z" fill="#163248" stroke="#163248"></path><path d="M448.6 600L505.6 508.3L444.4 503.7Z" fill="#091c2a" stroke="#091c2a"></path><path d="M584.8 520.3L628.1 552.3L598.1 475.7Z" fill="#2b577a" stroke="#2b577a"></path><path d="M682.3 503.7L673.3 557.3L728.5 486.7Z" fill="#33648b" stroke="#33648b"></path><path d="M809.8 445.7L805.8 380L741.5 391Z" fill="#4b8cc2" stroke="#4b8cc2"></path><path d="M790.8 297.7L827.8 303.3L755.5 241.7Z" fill="#0f2739" stroke="#0f2739"></path><path d="M223.7 58.7L233.7 105.3L274.9 78.7Z" fill="#1d3e58" stroke="#1d3e58"></path><path d="M274.9 78.7L233.7 105.3L264.9 108.3Z" fill="#091c2a" stroke="#091c2a"></path><path d="M264.9 108.3L233.7 105.3L294.9 202Z" fill="#2b577a" stroke="#2b577a"></path><path d="M238.9 248.7L193.7 291.7L225.7 327.3Z" fill="#163248" stroke="#163248"></path><path d="M805.8 380L827.8 303.3L790.8 297.7Z" fill="#1d3e58" stroke="#1d3e58"></path><path d="M797.8 168L864.8 138.3L786.5 109.3Z" fill="#33648b" stroke="#33648b"></path><path d="M772.5 51.7L704.3 0L658.1 77.7Z" fill="#33648b" stroke="#33648b"></path><path d="M177.5 291.7L193.7 291.7L175.7 202Z" fill="#33648b" stroke="#33648b"></path><path d="M225.7 327.3L219.7 391L259.9 334.3Z" fill="#163248" stroke="#163248"></path><path d="M262.9 405L249.9 501.7L306.9 494.3Z" fill="#244a69" stroke="#244a69"></path><path d="M136.5 305.3L219.7 391L225.7 327.3Z" fill="#163248" stroke="#163248"></path><path d="M373.2 555.3L389.4 555.3L351.2 438.7Z" fill="#244a69" stroke="#244a69"></path><path d="M306.9 494.3L373.2 555.3L351.2 438.7Z" fill="#3b719d" stroke="#3b719d"></path><path d="M786.5 109.3L772.5 51.7L696.3 131.3Z" fill="#00101c" stroke="#00101c"></path><path d="M175.7 202L193.7 291.7L238.9 248.7Z" fill="#00101c" stroke="#00101c"></path><path d="M193.7 291.7L177.5 291.7L225.7 327.3Z" fill="#244a69" stroke="#244a69"></path><path d="M628.1 552.3L673.3 557.3L682.3 503.7Z" fill="#4b8cc2" stroke="#4b8cc2"></path><path d="M651.1 600L673.3 557.3L628.1 552.3Z" fill="#0f2739" stroke="#0f2739"></path><path d="M448.6 600L444.4 503.7L389.4 555.3Z" fill="#00101c" stroke="#00101c"></path><path d="M233.7 105.3L175.7 202L294.9 202Z" fill="#1d3e58" stroke="#1d3e58"></path><path d="M426.4 600L448.6 600L389.4 555.3Z" fill="#0f2739" stroke="#0f2739"></path><path d="M448.6 600L577.8 600L505.6 508.3Z" fill="#4b8cc2" stroke="#4b8cc2"></path><path d="M262.9 0L223.7 58.7L274.9 78.7Z" fill="#33648b" stroke="#33648b"></path><path d="M99.5 156.3L129.5 206L175.7 202Z" fill="#00101c" stroke="#00101c"></path><path d="M773.5 537.3L809.8 445.7L728.5 486.7Z" fill="#163248" stroke="#163248"></path><path d="M728.5 486.7L809.8 445.7L741.5 391Z" fill="#33648b" stroke="#33648b"></path><path d="M900 350.3L900 292.7L827.8 303.3Z" fill="#1d3e58" stroke="#1d3e58"></path><path d="M373.2 555.3L426.4 600L389.4 555.3Z" fill="#163248" stroke="#163248"></path><path d="M849.8 37.7L762.5 0L772.5 51.7Z" fill="#0f2739" stroke="#0f2739"></path><path d="M772.5 51.7L762.5 0L704.3 0Z" fill="#00101c" stroke="#00101c"></path><path d="M379.2 0L262.9 0L274.9 78.7Z" fill="#244a69" stroke="#244a69"></path><path d="M230.7 502.7L249.9 501.7L262.9 405Z" fill="#1d3e58" stroke="#1d3e58"></path><path d="M311.9 600L336.2 600L373.2 555.3Z" fill="#0f2739" stroke="#0f2739"></path><path d="M373.2 555.3L336.2 600L426.4 600Z" fill="#3b719d" stroke="#3b719d"></path><path d="M230.7 502.7L262.9 405L219.7 391Z" fill="#3b719d" stroke="#3b719d"></path><path d="M577.8 600L651.1 600L628.1 552.3Z" fill="#0f2739" stroke="#0f2739"></path><path d="M673.3 557.3L773.5 537.3L728.5 486.7Z" fill="#2b577a" stroke="#2b577a"></path><path d="M900 200L797.8 168L827.8 303.3Z" fill="#00101c" stroke="#00101c"></path><path d="M900 200L864.8 138.3L797.8 168Z" fill="#1d3e58" stroke="#1d3e58"></path><path d="M786.5 109.3L849.8 37.7L772.5 51.7Z" fill="#00101c" stroke="#00101c"></path><path d="M262.9 0L242.7 0L223.7 58.7Z" fill="#4b8cc2" stroke="#4b8cc2"></path><path d="M129.5 206L177.5 291.7L175.7 202Z" fill="#437eaf" stroke="#437eaf"></path><path d="M149.5 434.7L230.7 502.7L219.7 391Z" fill="#33648b" stroke="#33648b"></path><path d="M311.9 600L373.2 555.3L306.9 494.3Z" fill="#1d3e58" stroke="#1d3e58"></path><path d="M651.1 600L666.3 600L673.3 557.3Z" fill="#4b8cc2" stroke="#4b8cc2"></path><path d="M129.5 206L136.5 305.3L177.5 291.7Z" fill="#244a69" stroke="#244a69"></path><path d="M177.5 291.7L136.5 305.3L225.7 327.3Z" fill="#2b577a" stroke="#2b577a"></path><path d="M175.7 202L112.5 95.7L99.5 156.3Z" fill="#163248" stroke="#163248"></path><path d="M772.5 600L773.5 537.3L673.3 557.3Z" fill="#1d3e58" stroke="#1d3e58"></path><path d="M311.9 600L306.9 494.3L249.9 501.7Z" fill="#0f2739" stroke="#0f2739"></path><path d="M175.7 202L233.7 105.3L112.5 95.7Z" fill="#437eaf" stroke="#437eaf"></path><path d="M900 350.3L805.8 380L900 373Z" fill="#33648b" stroke="#33648b"></path><path d="M900 350.3L827.8 303.3L805.8 380Z" fill="#3b719d" stroke="#3b719d"></path><path d="M900 292.7L900 200L827.8 303.3Z" fill="#0f2739" stroke="#0f2739"></path><path d="M247.7 600L311.9 600L249.9 501.7Z" fill="#3b719d" stroke="#3b719d"></path><path d="M900 373L805.8 380L809.8 445.7Z" fill="#2b577a" stroke="#2b577a"></path><path d="M900 87.7L849.8 37.7L864.8 138.3Z" fill="#33648b" stroke="#33648b"></path><path d="M864.8 138.3L849.8 37.7L786.5 109.3Z" fill="#4b8cc2" stroke="#4b8cc2"></path><path d="M900 502.7L900 373L809.8 445.7Z" fill="#2b577a" stroke="#2b577a"></path><path d="M113.5 389L149.5 434.7L219.7 391Z" fill="#4b8cc2" stroke="#4b8cc2"></path><path d="M230.7 502.7L247.7 600L249.9 501.7Z" fill="#437eaf" stroke="#437eaf"></path><path d="M772.5 600L798.8 554.3L773.5 537.3Z" fill="#163248" stroke="#163248"></path><path d="M773.5 537.3L798.8 554.3L809.8 445.7Z" fill="#0f2739" stroke="#0f2739"></path><path d="M96.2 288.7L107.2 352.3L136.5 305.3Z" fill="#33648b" stroke="#33648b"></path><path d="M136.5 305.3L107.2 352.3L219.7 391Z" fill="#163248" stroke="#163248"></path><path d="M129.5 206L96.2 288.7L136.5 305.3Z" fill="#091c2a" stroke="#091c2a"></path><path d="M900 200L900 98.3L864.8 138.3Z" fill="#0f2739" stroke="#0f2739"></path><path d="M94.2 484.7L113.5 389L35.2 427Z" fill="#163248" stroke="#163248"></path><path d="M107.2 352.3L113.5 389L219.7 391Z" fill="#33648b" stroke="#33648b"></path><path d="M900 98.3L900 87.7L864.8 138.3Z" fill="#33648b" stroke="#33648b"></path><path d="M94.2 484.7L166.7 504.3L149.5 434.7Z" fill="#0f2739" stroke="#0f2739"></path><path d="M149.5 434.7L166.7 504.3L230.7 502.7Z" fill="#00101c" stroke="#00101c"></path><path d="M112.5 95.7L233.7 105.3L223.7 58.7Z" fill="#244a69" stroke="#244a69"></path><path d="M129.5 206L60.2 205L96.2 288.7Z" fill="#3b719d" stroke="#3b719d"></path><path d="M242.7 0L169.5 0L223.7 58.7Z" fill="#33648b" stroke="#33648b"></path><path d="M666.3 600L772.5 600L673.3 557.3Z" fill="#4b8cc2" stroke="#4b8cc2"></path><path d="M169.5 0L112.5 95.7L223.7 58.7Z" fill="#437eaf" stroke="#437eaf"></path><path d="M171.5 544.3L247.7 600L230.7 502.7Z" fill="#33648b" stroke="#33648b"></path><path d="M900 0L870.8 0L849.8 37.7Z" fill="#4b8cc2" stroke="#4b8cc2"></path><path d="M849.8 37.7L870.8 0L762.5 0Z" fill="#0f2739" stroke="#0f2739"></path><path d="M107.2 536.3L171.5 544.3L166.7 504.3Z" fill="#33648b" stroke="#33648b"></path><path d="M166.7 504.3L171.5 544.3L230.7 502.7Z" fill="#163248" stroke="#163248"></path><path d="M46.2 112.3L60.2 205L99.5 156.3Z" fill="#2b577a" stroke="#2b577a"></path><path d="M99.5 156.3L60.2 205L129.5 206Z" fill="#0f2739" stroke="#0f2739"></path><path d="M0 416L35.2 427L107.2 352.3Z" fill="#244a69" stroke="#244a69"></path><path d="M900 538.3L900 502.7L798.8 554.3Z" fill="#244a69" stroke="#244a69"></path><path d="M798.8 554.3L900 502.7L809.8 445.7Z" fill="#244a69" stroke="#244a69"></path><path d="M900 87.7L900 0L849.8 37.7Z" fill="#2b577a" stroke="#2b577a"></path><path d="M113.5 389L94.2 484.7L149.5 434.7Z" fill="#33648b" stroke="#33648b"></path><path d="M35.2 427L113.5 389L107.2 352.3Z" fill="#163248" stroke="#163248"></path><path d="M865.8 600L900 538.3L798.8 554.3Z" fill="#244a69" stroke="#244a69"></path><path d="M112.5 95.7L46.2 112.3L99.5 156.3Z" fill="#1d3e58" stroke="#1d3e58"></path><path d="M0 294.3L107.2 352.3L96.2 288.7Z" fill="#00101c" stroke="#00101c"></path><path d="M58.2 71.7L46.2 112.3L112.5 95.7Z" fill="#0f2739" stroke="#0f2739"></path><path d="M90.2 0L58.2 71.7L112.5 95.7Z" fill="#091c2a" stroke="#091c2a"></path><path d="M772.5 600L865.8 600L798.8 554.3Z" fill="#163248" stroke="#163248"></path><path d="M94.2 484.7L107.2 536.3L166.7 504.3Z" fill="#3b719d" stroke="#3b719d"></path><path d="M171.5 544.3L102.5 600L247.7 600Z" fill="#2b577a" stroke="#2b577a"></path><path d="M169.5 0L90.2 0L112.5 95.7Z" fill="#1d3e58" stroke="#1d3e58"></path><path d="M0 238.7L96.2 288.7L60.2 205Z" fill="#33648b" stroke="#33648b"></path><path d="M0 569.3L82.2 600L107.2 536.3Z" fill="#091c2a" stroke="#091c2a"></path><path d="M0 203L60.2 205L0 136.3Z" fill="#4b8cc2" stroke="#4b8cc2"></path><path d="M0 203L0 238.7L60.2 205Z" fill="#163248" stroke="#163248"></path><path d="M0 238.7L0 294.3L96.2 288.7Z" fill="#2b577a" stroke="#2b577a"></path><path d="M0 136.3L60.2 205L46.2 112.3Z" fill="#091c2a" stroke="#091c2a"></path><path d="M865.8 600L900 600L900 538.3Z" fill="#163248" stroke="#163248"></path><path d="M0 38.7L46.2 112.3L58.2 71.7Z" fill="#0f2739" stroke="#0f2739"></path><path d="M0 38.7L0 136.3L46.2 112.3Z" fill="#3b719d" stroke="#3b719d"></path><path d="M82.2 600L102.5 600L107.2 536.3Z" fill="#163248" stroke="#163248"></path><path d="M107.2 536.3L102.5 600L171.5 544.3Z" fill="#163248" stroke="#163248"></path><path d="M0 294.3L0 416L107.2 352.3Z" fill="#4b8cc2" stroke="#4b8cc2"></path><path d="M0 480.7L107.2 536.3L94.2 484.7Z" fill="#1d3e58" stroke="#1d3e58"></path><path d="M0 480.7L94.2 484.7L35.2 427Z" fill="#0f2739" stroke="#0f2739"></path><path d="M90.2 0L0 38.7L58.2 71.7Z" fill="#437eaf" stroke="#437eaf"></path><path d="M0 416L0 480.7L35.2 427Z" fill="#244a69" stroke="#244a69"></path><path d="M90.2 0L0 0L0 38.7Z" fill="#1d3e58" stroke="#1d3e58"></path><path d="M0 480.7L0 569.3L107.2 536.3Z" fill="#4b8cc2" stroke="#4b8cc2"></path><path d="M0 569.3L0 600L82.2 600Z" fill="#163248" stroke="#163248"></path></g></svg>